<mxfile host="65bd71144e">
    <diagram id="6AL-yDHU1_xXkL8-M3__" name="Page-1">
        <mxGraphModel dx="938" dy="762" grid="1" gridSize="10" guides="1" tooltips="1" connect="1" arrows="1" fold="1" page="1" pageScale="1" pageWidth="850" pageHeight="1100" math="0" shadow="0">
            <root>
                <mxCell id="0"/>
                <mxCell id="1" parent="0"/>
                <mxCell id="2" value="Customer Web Browser" style="shape=umlActor;verticalLabelPosition=bottom;verticalAlign=top;html=1;outlineConnect=0;" vertex="1" parent="1">
                    <mxGeometry x="250" y="20" width="30" height="60" as="geometry"/>
                </mxCell>
                <mxCell id="3" value="Load Balancer" style="rounded=0;whiteSpace=wrap;html=1;" vertex="1" parent="1">
                    <mxGeometry x="210" y="130" width="120" height="20" as="geometry"/>
                </mxCell>
                <mxCell id="4" value="Web Server" style="rounded=0;whiteSpace=wrap;html=1;" vertex="1" parent="1">
                    <mxGeometry x="60" y="180" width="120" height="30" as="geometry"/>
                </mxCell>
                <mxCell id="5" value="Web Server" style="rounded=0;whiteSpace=wrap;html=1;" vertex="1" parent="1">
                    <mxGeometry x="190" y="180" width="120" height="30" as="geometry"/>
                </mxCell>
                <mxCell id="6" value="Web Server" style="rounded=0;whiteSpace=wrap;html=1;" vertex="1" parent="1">
                    <mxGeometry x="320" y="180" width="120" height="30" as="geometry"/>
                </mxCell>
                <mxCell id="7" value="Web Server" style="rounded=0;whiteSpace=wrap;html=1;" vertex="1" parent="1">
                    <mxGeometry x="450" y="180" width="120" height="30" as="geometry"/>
                </mxCell>
                <mxCell id="8" value="Restaurant" style="shape=cylinder3;whiteSpace=wrap;html=1;boundedLbl=1;backgroundOutline=1;size=5.5025787353515625;" vertex="1" parent="1">
                    <mxGeometry x="70" y="330" width="60" height="60" as="geometry"/>
                </mxCell>
                <mxCell id="9" value="Distributed Cache for Restaurant - location" style="rounded=1;whiteSpace=wrap;html=1;" vertex="1" parent="1">
                    <mxGeometry x="60" y="220" width="510" height="40" as="geometry"/>
                </mxCell>
                <mxCell id="10" value="Schedule / Reservation" style="shape=cylinder3;whiteSpace=wrap;html=1;boundedLbl=1;backgroundOutline=1;size=5.5025787353515625;" vertex="1" parent="1">
                    <mxGeometry x="230" y="390" width="55" height="60" as="geometry"/>
                </mxCell>
                <mxCell id="11" value="Customer" style="shape=cylinder3;whiteSpace=wrap;html=1;boundedLbl=1;backgroundOutline=1;size=6.0025787353515625;" vertex="1" parent="1">
                    <mxGeometry x="365" y="330" width="60" height="60" as="geometry"/>
                </mxCell>
                <mxCell id="12" value="Service" style="rounded=0;whiteSpace=wrap;html=1;" vertex="1" parent="1">
                    <mxGeometry x="60" y="290" width="100" height="30" as="geometry"/>
                </mxCell>
                <mxCell id="14" value="Service" style="rounded=0;whiteSpace=wrap;html=1;" vertex="1" parent="1">
                    <mxGeometry x="215" y="350" width="100" height="30" as="geometry"/>
                </mxCell>
                <mxCell id="15" value="Service" style="rounded=0;whiteSpace=wrap;html=1;" vertex="1" parent="1">
                    <mxGeometry x="345" y="290" width="100" height="30" as="geometry"/>
                </mxCell>
                <mxCell id="16" value="Service" style="rounded=0;whiteSpace=wrap;html=1;" vertex="1" parent="1">
                    <mxGeometry x="70" y="300" width="100" height="30" as="geometry"/>
                </mxCell>
                <mxCell id="17" value="Service" style="rounded=0;whiteSpace=wrap;html=1;" vertex="1" parent="1">
                    <mxGeometry x="355" y="300" width="100" height="30" as="geometry"/>
                </mxCell>
                <mxCell id="18" value="Read" style="text;html=1;align=center;verticalAlign=middle;resizable=0;points=[];autosize=1;strokeColor=none;fillColor=none;" vertex="1" parent="1">
                    <mxGeometry x="90" y="270" width="40" height="20" as="geometry"/>
                </mxCell>
                <mxCell id="19" value="Read" style="text;html=1;align=center;verticalAlign=middle;resizable=0;points=[];autosize=1;strokeColor=none;fillColor=none;" vertex="1" parent="1">
                    <mxGeometry x="375" y="270" width="40" height="20" as="geometry"/>
                </mxCell>
                <mxCell id="20" value="Queueing" style="rounded=0;whiteSpace=wrap;html=1;" vertex="1" parent="1">
                    <mxGeometry x="215" y="290" width="100" height="30" as="geometry"/>
                </mxCell>
                <mxCell id="21" value="HTTP over the internet" style="text;html=1;align=center;verticalAlign=middle;resizable=0;points=[];autosize=1;strokeColor=none;fillColor=none;" vertex="1" parent="1">
                    <mxGeometry x="210" y="110" width="140" height="20" as="geometry"/>
                </mxCell>
                <mxCell id="22" value="SMS server" style="rounded=0;whiteSpace=wrap;html=1;" vertex="1" parent="1">
                    <mxGeometry x="510" y="360" width="120" height="30" as="geometry"/>
                </mxCell>
            </root>
        </mxGraphModel>
    </diagram>
</mxfile>